<mxfile host="app.diagrams.net" modified="2023-10-29T08:34:56.792Z" agent="Mozilla/5.0 (Windows NT 10.0; Win64; x64) AppleWebKit/537.36 (KHTML, like Gecko) Chrome/81.0.4044.113 Safari/537.36" etag="wVpRlZxCp6mc8eJ8lSOM" version="22.0.8" type="github">
  <diagram id="C5RBs43oDa-KdzZeNtuy" name="Page-1">
    <mxGraphModel dx="3301" dy="868" grid="1" gridSize="10" guides="1" tooltips="1" connect="1" arrows="1" fold="1" page="1" pageScale="1" pageWidth="827" pageHeight="1169" math="0" shadow="0">
      <root>
        <mxCell id="WIyWlLk6GJQsqaUBKTNV-0" />
        <mxCell id="WIyWlLk6GJQsqaUBKTNV-1" parent="WIyWlLk6GJQsqaUBKTNV-0" />
        <mxCell id="WIyWlLk6GJQsqaUBKTNV-2" value="" style="rounded=0;html=1;jettySize=auto;orthogonalLoop=1;fontSize=11;endArrow=block;endFill=0;endSize=8;strokeWidth=1;shadow=0;labelBackgroundColor=none;edgeStyle=orthogonalEdgeStyle;" parent="WIyWlLk6GJQsqaUBKTNV-1" source="WIyWlLk6GJQsqaUBKTNV-3" target="WIyWlLk6GJQsqaUBKTNV-6" edge="1">
          <mxGeometry relative="1" as="geometry" />
        </mxCell>
        <mxCell id="WIyWlLk6GJQsqaUBKTNV-3" value="בקשת הרשאה" style="rounded=1;whiteSpace=wrap;html=1;fontSize=12;glass=0;strokeWidth=1;shadow=0;" parent="WIyWlLk6GJQsqaUBKTNV-1" vertex="1">
          <mxGeometry x="160" y="80" width="120" height="40" as="geometry" />
        </mxCell>
        <mxCell id="WIyWlLk6GJQsqaUBKTNV-4" value="כן" style="rounded=0;html=1;jettySize=auto;orthogonalLoop=1;fontSize=11;endArrow=block;endFill=0;endSize=8;strokeWidth=1;shadow=0;labelBackgroundColor=none;edgeStyle=orthogonalEdgeStyle;" parent="WIyWlLk6GJQsqaUBKTNV-1" source="WIyWlLk6GJQsqaUBKTNV-6" target="WIyWlLk6GJQsqaUBKTNV-10" edge="1">
          <mxGeometry y="20" relative="1" as="geometry">
            <mxPoint as="offset" />
          </mxGeometry>
        </mxCell>
        <mxCell id="WIyWlLk6GJQsqaUBKTNV-5" value="לא" style="edgeStyle=orthogonalEdgeStyle;rounded=0;html=1;jettySize=auto;orthogonalLoop=1;fontSize=11;endArrow=block;endFill=0;endSize=8;strokeWidth=1;shadow=0;labelBackgroundColor=none;" parent="WIyWlLk6GJQsqaUBKTNV-1" source="WIyWlLk6GJQsqaUBKTNV-6" edge="1">
          <mxGeometry y="10" relative="1" as="geometry">
            <mxPoint as="offset" />
            <mxPoint x="320" y="210" as="targetPoint" />
          </mxGeometry>
        </mxCell>
        <mxCell id="WIyWlLk6GJQsqaUBKTNV-6" value="?כרטיס בנקאי" style="rhombus;whiteSpace=wrap;html=1;shadow=0;fontFamily=Helvetica;fontSize=12;align=center;strokeWidth=1;spacing=6;spacingTop=-4;" parent="WIyWlLk6GJQsqaUBKTNV-1" vertex="1">
          <mxGeometry x="170" y="170" width="100" height="80" as="geometry" />
        </mxCell>
        <mxCell id="WIyWlLk6GJQsqaUBKTNV-9" value="לא" style="edgeStyle=orthogonalEdgeStyle;rounded=0;html=1;jettySize=auto;orthogonalLoop=1;fontSize=11;endArrow=block;endFill=0;endSize=8;strokeWidth=1;shadow=0;labelBackgroundColor=none;" parent="WIyWlLk6GJQsqaUBKTNV-1" source="WIyWlLk6GJQsqaUBKTNV-10" target="EC5lf5gmg6Qt6Xy7_AVs-135" edge="1">
          <mxGeometry y="10" relative="1" as="geometry">
            <mxPoint as="offset" />
            <mxPoint x="320" y="330" as="targetPoint" />
          </mxGeometry>
        </mxCell>
        <mxCell id="-IVf00ebbiKwBFE9Y3km-18" value="כן" style="edgeStyle=orthogonalEdgeStyle;rounded=0;orthogonalLoop=1;jettySize=auto;html=1;" edge="1" parent="WIyWlLk6GJQsqaUBKTNV-1" source="WIyWlLk6GJQsqaUBKTNV-10" target="EC5lf5gmg6Qt6Xy7_AVs-10">
          <mxGeometry relative="1" as="geometry" />
        </mxCell>
        <mxCell id="WIyWlLk6GJQsqaUBKTNV-10" value="?גורם חיצוני" style="rhombus;whiteSpace=wrap;html=1;shadow=0;fontFamily=Helvetica;fontSize=12;align=center;strokeWidth=1;spacing=6;spacingTop=-4;" parent="WIyWlLk6GJQsqaUBKTNV-1" vertex="1">
          <mxGeometry x="170" y="290" width="100" height="80" as="geometry" />
        </mxCell>
        <mxCell id="-IVf00ebbiKwBFE9Y3km-21" style="edgeStyle=orthogonalEdgeStyle;rounded=0;orthogonalLoop=1;jettySize=auto;html=1;" edge="1" parent="WIyWlLk6GJQsqaUBKTNV-1" source="EC5lf5gmg6Qt6Xy7_AVs-10" target="EC5lf5gmg6Qt6Xy7_AVs-12">
          <mxGeometry relative="1" as="geometry" />
        </mxCell>
        <mxCell id="EC5lf5gmg6Qt6Xy7_AVs-10" value="מנפיק הכרטיס" style="whiteSpace=wrap;html=1;shadow=0;strokeWidth=1;spacing=6;spacingTop=-4;" parent="WIyWlLk6GJQsqaUBKTNV-1" vertex="1">
          <mxGeometry x="160" y="410" width="120" height="60" as="geometry" />
        </mxCell>
        <mxCell id="EC5lf5gmg6Qt6Xy7_AVs-15" value="לא" style="edgeStyle=orthogonalEdgeStyle;rounded=0;orthogonalLoop=1;jettySize=auto;html=1;labelBackgroundColor=none;endArrow=block;endFill=0;endSize=8;strokeWidth=1;shadow=0;" parent="WIyWlLk6GJQsqaUBKTNV-1" source="EC5lf5gmg6Qt6Xy7_AVs-12" edge="1">
          <mxGeometry x="-0.208" y="20" relative="1" as="geometry">
            <mxPoint x="220" y="910" as="targetPoint" />
            <mxPoint as="offset" />
          </mxGeometry>
        </mxCell>
        <mxCell id="EC5lf5gmg6Qt6Xy7_AVs-19" value="כן" style="edgeStyle=orthogonalEdgeStyle;rounded=0;orthogonalLoop=1;jettySize=auto;html=1;labelBackgroundColor=none;endArrow=block;endFill=0;endSize=8;strokeWidth=1;shadow=0;" parent="WIyWlLk6GJQsqaUBKTNV-1" source="EC5lf5gmg6Qt6Xy7_AVs-12" edge="1">
          <mxGeometry y="-20" relative="1" as="geometry">
            <mxPoint x="120" y="560" as="targetPoint" />
            <mxPoint as="offset" />
          </mxGeometry>
        </mxCell>
        <mxCell id="EC5lf5gmg6Qt6Xy7_AVs-12" value="בנק מזרחי" style="rhombus;whiteSpace=wrap;html=1;shadow=0;strokeWidth=1;spacing=6;spacingTop=-4;direction=south;" parent="WIyWlLk6GJQsqaUBKTNV-1" vertex="1">
          <mxGeometry x="180" y="520" width="80" height="80" as="geometry" />
        </mxCell>
        <mxCell id="EC5lf5gmg6Qt6Xy7_AVs-23" value="&lt;p style=&quot;text-indent:-18.0pt;mso-list:l0 level1 lfo1&quot; dir=&quot;RTL&quot; class=&quot;MsoListParagraph&quot;&gt;&lt;span style=&quot;font-family:&amp;quot;Arial&amp;quot;,sans-serif;mso-ascii-font-family:Calibri;mso-ascii-theme-font:&lt;br/&gt;minor-latin;mso-hansi-font-family:Calibri;mso-hansi-theme-font:minor-latin;&lt;br/&gt;mso-bidi-font-family:Arial;mso-bidi-theme-font:minor-bidi&quot; lang=&quot;HE&quot;&gt;סכום החריגה קטן שווה למקסימום נציג בנק מזרחי&lt;br&gt;&lt;/span&gt;&lt;span dir=&quot;LTR&quot;&gt;&lt;/span&gt;&lt;/p&gt;" style="rhombus;whiteSpace=wrap;html=1;" parent="WIyWlLk6GJQsqaUBKTNV-1" vertex="1">
          <mxGeometry x="-280" y="520" width="400" height="80" as="geometry" />
        </mxCell>
        <mxCell id="EC5lf5gmg6Qt6Xy7_AVs-28" value="כן" style="edgeStyle=orthogonalEdgeStyle;rounded=0;orthogonalLoop=1;jettySize=auto;html=1;labelBackgroundColor=none;endArrow=block;endFill=0;endSize=8;strokeWidth=1;shadow=0;fillColor=#d80073;strokeColor=#A50040;" parent="WIyWlLk6GJQsqaUBKTNV-1" target="EC5lf5gmg6Qt6Xy7_AVs-29" edge="1">
          <mxGeometry x="-0.381" y="-10" relative="1" as="geometry">
            <mxPoint x="-280" y="559.5" as="sourcePoint" />
            <mxPoint x="-340" y="559.5" as="targetPoint" />
            <Array as="points">
              <mxPoint x="-740" y="560" />
              <mxPoint x="-740" y="755" />
            </Array>
            <mxPoint as="offset" />
          </mxGeometry>
        </mxCell>
        <mxCell id="EC5lf5gmg6Qt6Xy7_AVs-118" style="edgeStyle=orthogonalEdgeStyle;rounded=0;orthogonalLoop=1;jettySize=auto;html=1;" parent="WIyWlLk6GJQsqaUBKTNV-1" source="EC5lf5gmg6Qt6Xy7_AVs-29" target="EC5lf5gmg6Qt6Xy7_AVs-41" edge="1">
          <mxGeometry relative="1" as="geometry" />
        </mxCell>
        <mxCell id="EC5lf5gmg6Qt6Xy7_AVs-29" value="מאושר" style="rounded=1;whiteSpace=wrap;html=1;" parent="WIyWlLk6GJQsqaUBKTNV-1" vertex="1">
          <mxGeometry x="-930" y="720" width="110" height="60" as="geometry" />
        </mxCell>
        <mxCell id="EC5lf5gmg6Qt6Xy7_AVs-30" value="לא" style="edgeStyle=orthogonalEdgeStyle;rounded=0;orthogonalLoop=1;jettySize=auto;html=1;labelBackgroundColor=none;endArrow=block;endFill=0;endSize=8;strokeWidth=1;shadow=0;" parent="WIyWlLk6GJQsqaUBKTNV-1" edge="1">
          <mxGeometry x="-0.208" y="20" relative="1" as="geometry">
            <mxPoint x="-80.5" y="600" as="sourcePoint" />
            <mxPoint x="-80.5" y="650" as="targetPoint" />
            <mxPoint as="offset" />
          </mxGeometry>
        </mxCell>
        <mxCell id="EC5lf5gmg6Qt6Xy7_AVs-31" value="&lt;p style=&quot;text-indent: -18pt; line-height: 0%;&quot; dir=&quot;RTL&quot; class=&quot;MsoListParagraph&quot;&gt;&lt;span style=&quot;font-family:&amp;quot;Arial&amp;quot;,sans-serif;mso-ascii-font-family:Calibri;mso-ascii-theme-font:&lt;br/&gt;minor-latin;mso-hansi-font-family:Calibri;mso-hansi-theme-font:minor-latin;&lt;br/&gt;mso-bidi-font-family:Arial;mso-bidi-theme-font:minor-bidi&quot; lang=&quot;HE&quot;&gt;סכום החריגה גדול ממקסימום לנציג בנק מזרחי&lt;/span&gt;&lt;span dir=&quot;LTR&quot;&gt;&lt;/span&gt;&lt;/p&gt;&lt;p style=&quot;text-indent: -18pt; line-height: 0%;&quot; dir=&quot;RTL&quot; class=&quot;MsoListParagraph&quot;&gt;&lt;span style=&quot;font-family:&amp;quot;Arial&amp;quot;,sans-serif;mso-ascii-font-family:Calibri;mso-ascii-theme-font:&lt;br/&gt;minor-latin;mso-hansi-font-family:Calibri;mso-hansi-theme-font:minor-latin;&lt;br/&gt;mso-bidi-font-family:Arial;mso-bidi-theme-font:minor-bidi&quot; lang=&quot;HE&quot;&gt;וקטן שווה למקסימום נציג בכיר בנק מזרחי&lt;/span&gt;&lt;/p&gt;&lt;p style=&quot;text-indent: -18pt; line-height: 0%;&quot; dir=&quot;RTL&quot; class=&quot;MsoListParagraph&quot;&gt;&lt;span style=&quot;font-family:&amp;quot;Arial&amp;quot;,sans-serif;mso-ascii-font-family:Calibri;mso-ascii-theme-font:&lt;br/&gt;minor-latin;mso-hansi-font-family:Calibri;mso-hansi-theme-font:minor-latin;&lt;br/&gt;mso-bidi-font-family:Arial;mso-bidi-theme-font:minor-bidi&quot; lang=&quot;HE&quot;&gt;והמאשר הוא נציג בכיר/ר&quot;צ&lt;/span&gt;&lt;/p&gt;&lt;p style=&quot;text-indent: -18pt; line-height: 0%;&quot; dir=&quot;RTL&quot; class=&quot;MsoListParagraph&quot;&gt;&lt;span style=&quot;font-family:&amp;quot;Arial&amp;quot;,sans-serif;mso-ascii-font-family:Calibri;mso-ascii-theme-font:&lt;br/&gt;minor-latin;mso-hansi-font-family:Calibri;mso-hansi-theme-font:minor-latin;&lt;br/&gt;mso-bidi-font-family:Arial;mso-bidi-theme-font:minor-bidi&quot; lang=&quot;HE&quot;&gt;או עם קוד תפקיד&amp;nbsp;&lt;/span&gt;&lt;span style=&quot;text-indent: -18pt; background-color: initial; font-family: Arial, sans-serif;&quot; lang=&quot;HE&quot;&gt;מנהל&amp;nbsp;&lt;/span&gt;&lt;span style=&quot;text-indent: -18pt; background-color: initial; font-family: Arial, sans-serif;&quot;&gt;מוקד&lt;/span&gt;&lt;/p&gt;" style="rhombus;whiteSpace=wrap;html=1;spacing=0;" parent="WIyWlLk6GJQsqaUBKTNV-1" vertex="1">
          <mxGeometry x="-280" y="650" width="400" height="80" as="geometry" />
        </mxCell>
        <mxCell id="EC5lf5gmg6Qt6Xy7_AVs-33" value="כן" style="edgeStyle=orthogonalEdgeStyle;rounded=0;orthogonalLoop=1;jettySize=auto;html=1;labelBackgroundColor=none;endArrow=block;endFill=0;endSize=8;strokeWidth=1;shadow=0;fillColor=#ffe6cc;strokeColor=#d79b00;" parent="WIyWlLk6GJQsqaUBKTNV-1" target="EC5lf5gmg6Qt6Xy7_AVs-34" edge="1">
          <mxGeometry x="-0.6431" y="-11" relative="1" as="geometry">
            <mxPoint x="-280" y="690" as="sourcePoint" />
            <mxPoint x="-330" y="691" as="targetPoint" />
            <Array as="points">
              <mxPoint x="-280" y="691" />
              <mxPoint x="-430" y="691" />
              <mxPoint x="-430" y="990" />
            </Array>
            <mxPoint as="offset" />
          </mxGeometry>
        </mxCell>
        <mxCell id="EC5lf5gmg6Qt6Xy7_AVs-117" style="edgeStyle=orthogonalEdgeStyle;rounded=0;orthogonalLoop=1;jettySize=auto;html=1;" parent="WIyWlLk6GJQsqaUBKTNV-1" source="EC5lf5gmg6Qt6Xy7_AVs-34" target="EC5lf5gmg6Qt6Xy7_AVs-46" edge="1">
          <mxGeometry relative="1" as="geometry" />
        </mxCell>
        <mxCell id="EC5lf5gmg6Qt6Xy7_AVs-34" value="מאושר" style="rounded=1;whiteSpace=wrap;html=1;" parent="WIyWlLk6GJQsqaUBKTNV-1" vertex="1">
          <mxGeometry x="-665" y="960" width="110" height="60" as="geometry" />
        </mxCell>
        <mxCell id="EC5lf5gmg6Qt6Xy7_AVs-35" value="לא" style="edgeStyle=orthogonalEdgeStyle;rounded=0;orthogonalLoop=1;jettySize=auto;html=1;labelBackgroundColor=none;endArrow=block;endFill=0;endSize=8;strokeWidth=1;shadow=0;" parent="WIyWlLk6GJQsqaUBKTNV-1" edge="1">
          <mxGeometry x="-0.208" y="20" relative="1" as="geometry">
            <mxPoint x="-80.5" y="730" as="sourcePoint" />
            <mxPoint x="-80.5" y="780" as="targetPoint" />
            <mxPoint as="offset" />
          </mxGeometry>
        </mxCell>
        <mxCell id="EC5lf5gmg6Qt6Xy7_AVs-115" value="כן" style="edgeStyle=orthogonalEdgeStyle;rounded=0;orthogonalLoop=1;jettySize=auto;html=1;entryX=1;entryY=0.5;entryDx=0;entryDy=0;" parent="WIyWlLk6GJQsqaUBKTNV-1" source="EC5lf5gmg6Qt6Xy7_AVs-36" target="EC5lf5gmg6Qt6Xy7_AVs-38" edge="1">
          <mxGeometry relative="1" as="geometry">
            <Array as="points">
              <mxPoint x="-310" y="820" />
              <mxPoint x="-310" y="1170" />
            </Array>
          </mxGeometry>
        </mxCell>
        <mxCell id="EC5lf5gmg6Qt6Xy7_AVs-36" value="&lt;p style=&quot;text-indent: -18pt; line-height: 0%;&quot; dir=&quot;RTL&quot; class=&quot;MsoListParagraph&quot;&gt;&lt;span style=&quot;font-family:&amp;quot;Arial&amp;quot;,sans-serif;mso-ascii-font-family:Calibri;mso-ascii-theme-font:&lt;br/&gt;minor-latin;mso-hansi-font-family:Calibri;mso-hansi-theme-font:minor-latin;&lt;br/&gt;mso-bidi-font-family:Arial;mso-bidi-theme-font:minor-bidi&quot; lang=&quot;HE&quot;&gt;סכום החריגה גדול ממקסימום לנציג בכיר בנק מזרחי&lt;/span&gt;&lt;span dir=&quot;LTR&quot;&gt;&lt;/span&gt;&lt;/p&gt;&lt;p style=&quot;text-indent: -18pt; line-height: 0%;&quot; dir=&quot;RTL&quot; class=&quot;MsoListParagraph&quot;&gt;&lt;span style=&quot;font-family:&amp;quot;Arial&amp;quot;,sans-serif;mso-ascii-font-family:Calibri;mso-ascii-theme-font:&lt;br/&gt;minor-latin;mso-hansi-font-family:Calibri;mso-hansi-theme-font:minor-latin;&lt;br/&gt;mso-bidi-font-family:Arial;mso-bidi-theme-font:minor-bidi&quot; lang=&quot;HE&quot;&gt;וקטן שווה למקסימום מנהל מוקד בנק מזרחי&lt;/span&gt;&lt;/p&gt;&lt;p style=&quot;text-indent: -18pt; line-height: 0%;&quot; dir=&quot;RTL&quot; class=&quot;MsoListParagraph&quot;&gt;&lt;span style=&quot;font-family:&amp;quot;Arial&amp;quot;,sans-serif;mso-ascii-font-family:Calibri;mso-ascii-theme-font:&lt;br/&gt;minor-latin;mso-hansi-font-family:Calibri;mso-hansi-theme-font:minor-latin;&lt;br/&gt;mso-bidi-font-family:Arial;mso-bidi-theme-font:minor-bidi&quot; lang=&quot;HE&quot;&gt;והמאשר הוא מנהל מוקד&lt;/span&gt;&lt;/p&gt;" style="rhombus;whiteSpace=wrap;html=1;spacing=0;" parent="WIyWlLk6GJQsqaUBKTNV-1" vertex="1">
          <mxGeometry x="-280" y="780" width="400" height="80" as="geometry" />
        </mxCell>
        <mxCell id="EC5lf5gmg6Qt6Xy7_AVs-38" value="מאושר" style="rounded=1;whiteSpace=wrap;html=1;" parent="WIyWlLk6GJQsqaUBKTNV-1" vertex="1">
          <mxGeometry x="-413" y="1140" width="67" height="60" as="geometry" />
        </mxCell>
        <mxCell id="EC5lf5gmg6Qt6Xy7_AVs-41" value="המאשר הוא נציג&lt;br&gt;וסכום החריגה גדול מ&lt;br&gt;מקסימום אישור ללא שליחת&lt;br&gt;מייל לר&quot;צ" style="rhombus;whiteSpace=wrap;html=1;shadow=0;strokeWidth=1;spacing=6;spacingTop=-4;" parent="WIyWlLk6GJQsqaUBKTNV-1" vertex="1">
          <mxGeometry x="-990" y="850" width="230" height="80" as="geometry" />
        </mxCell>
        <mxCell id="EC5lf5gmg6Qt6Xy7_AVs-45" value="שליחת מייל&lt;br&gt;&quot;חריגה&quot;&lt;br&gt;לר&quot;צ" style="shape=parallelogram;perimeter=parallelogramPerimeter;whiteSpace=wrap;html=1;fixedSize=1;" parent="WIyWlLk6GJQsqaUBKTNV-1" vertex="1">
          <mxGeometry x="-940" y="970" width="120" height="60" as="geometry" />
        </mxCell>
        <mxCell id="EC5lf5gmg6Qt6Xy7_AVs-48" value="כן" style="edgeStyle=orthogonalEdgeStyle;rounded=0;orthogonalLoop=1;jettySize=auto;html=1;labelBackgroundColor=none;endArrow=block;endFill=0;endSize=8;strokeWidth=1;shadow=0;entryX=0.5;entryY=0;entryDx=0;entryDy=0;" parent="WIyWlLk6GJQsqaUBKTNV-1" source="EC5lf5gmg6Qt6Xy7_AVs-46" target="EC5lf5gmg6Qt6Xy7_AVs-49" edge="1">
          <mxGeometry y="-20" relative="1" as="geometry">
            <mxPoint x="-870" y="999.5" as="sourcePoint" />
            <mxPoint x="-920" y="1000" as="targetPoint" />
            <mxPoint as="offset" />
          </mxGeometry>
        </mxCell>
        <mxCell id="EC5lf5gmg6Qt6Xy7_AVs-49" value="שליחת מייל&lt;br&gt;&quot;חריגה&quot;&lt;br&gt;למנהל מוקד" style="shape=parallelogram;perimeter=parallelogramPerimeter;whiteSpace=wrap;html=1;fixedSize=1;" parent="WIyWlLk6GJQsqaUBKTNV-1" vertex="1">
          <mxGeometry x="-670" y="1180" width="120" height="60" as="geometry" />
        </mxCell>
        <mxCell id="EC5lf5gmg6Qt6Xy7_AVs-76" value="לא" style="edgeStyle=orthogonalEdgeStyle;rounded=0;orthogonalLoop=1;jettySize=auto;html=1;labelBackgroundColor=none;endArrow=block;endFill=0;endSize=8;strokeWidth=1;shadow=0;" parent="WIyWlLk6GJQsqaUBKTNV-1" source="EC5lf5gmg6Qt6Xy7_AVs-78" target="EC5lf5gmg6Qt6Xy7_AVs-112" edge="1">
          <mxGeometry x="-0.208" y="20" relative="1" as="geometry">
            <mxPoint x="220" y="1300" as="targetPoint" />
            <mxPoint as="offset" />
          </mxGeometry>
        </mxCell>
        <mxCell id="EC5lf5gmg6Qt6Xy7_AVs-77" value="כן" style="edgeStyle=orthogonalEdgeStyle;rounded=0;orthogonalLoop=1;jettySize=auto;html=1;labelBackgroundColor=none;endArrow=block;endFill=0;endSize=8;strokeWidth=1;shadow=0;" parent="WIyWlLk6GJQsqaUBKTNV-1" source="EC5lf5gmg6Qt6Xy7_AVs-78" target="EC5lf5gmg6Qt6Xy7_AVs-79" edge="1">
          <mxGeometry y="-20" relative="1" as="geometry">
            <mxPoint x="120" y="950" as="targetPoint" />
            <mxPoint as="offset" />
          </mxGeometry>
        </mxCell>
        <mxCell id="EC5lf5gmg6Qt6Xy7_AVs-78" value="בנק דיסקונט" style="rhombus;whiteSpace=wrap;html=1;shadow=0;strokeWidth=1;spacing=6;spacingTop=-4;" parent="WIyWlLk6GJQsqaUBKTNV-1" vertex="1">
          <mxGeometry x="180" y="910" width="80" height="80" as="geometry" />
        </mxCell>
        <mxCell id="EC5lf5gmg6Qt6Xy7_AVs-79" value="&lt;p style=&quot;text-indent: -18pt; line-height: 0%;&quot; dir=&quot;RTL&quot; class=&quot;MsoListParagraph&quot;&gt;&lt;span style=&quot;font-family:&amp;quot;Arial&amp;quot;,sans-serif;mso-ascii-font-family:Calibri;mso-ascii-theme-font:&lt;br/&gt;minor-latin;mso-hansi-font-family:Calibri;mso-hansi-theme-font:minor-latin;&lt;br/&gt;mso-bidi-font-family:Arial;mso-bidi-theme-font:minor-bidi&quot; lang=&quot;HE&quot;&gt;המאשר הוא נציג&lt;br&gt;&lt;/span&gt;&lt;span dir=&quot;LTR&quot;&gt;&lt;/span&gt;&lt;/p&gt;&lt;p style=&quot;text-indent: -18pt; line-height: 0%;&quot; dir=&quot;RTL&quot; class=&quot;MsoListParagraph&quot;&gt;&lt;span style=&quot;font-family:&amp;quot;Arial&amp;quot;,sans-serif;mso-ascii-font-family:Calibri;mso-ascii-theme-font:&lt;br/&gt;minor-latin;mso-hansi-font-family:Calibri;mso-hansi-theme-font:minor-latin;&lt;br/&gt;mso-bidi-font-family:Arial;mso-bidi-theme-font:minor-bidi&quot; lang=&quot;HE&quot;&gt;וסכום החריגה קטן שווה למקסימום חריגה בנק דיסקונט&lt;/span&gt;&lt;/p&gt;&lt;p style=&quot;text-indent: -18pt; line-height: 0%;&quot; dir=&quot;RTL&quot; class=&quot;MsoListParagraph&quot;&gt;&lt;span style=&quot;font-family:&amp;quot;Arial&amp;quot;,sans-serif;mso-ascii-font-family:Calibri;mso-ascii-theme-font:&lt;br/&gt;minor-latin;mso-hansi-font-family:Calibri;mso-hansi-theme-font:minor-latin;&lt;br/&gt;mso-bidi-font-family:Arial;mso-bidi-theme-font:minor-bidi&quot; lang=&quot;HE&quot;&gt;וגם לאחוז חריגה לנציג בנק דיסקונט * מסגרת האשראי&lt;/span&gt;&lt;/p&gt;" style="rhombus;whiteSpace=wrap;html=1;" parent="WIyWlLk6GJQsqaUBKTNV-1" vertex="1">
          <mxGeometry x="-280" y="910" width="400" height="80" as="geometry" />
        </mxCell>
        <mxCell id="EC5lf5gmg6Qt6Xy7_AVs-80" value="כן" style="edgeStyle=orthogonalEdgeStyle;rounded=0;orthogonalLoop=1;jettySize=auto;html=1;labelBackgroundColor=none;endArrow=block;endFill=0;endSize=8;strokeWidth=1;shadow=0;fillColor=#d80073;strokeColor=#A50040;" parent="WIyWlLk6GJQsqaUBKTNV-1" target="EC5lf5gmg6Qt6Xy7_AVs-29" edge="1">
          <mxGeometry x="-0.381" y="-10" relative="1" as="geometry">
            <mxPoint x="-280" y="949.5" as="sourcePoint" />
            <mxPoint x="-330" y="950" as="targetPoint" />
            <Array as="points">
              <mxPoint x="-740" y="950" />
              <mxPoint x="-740" y="755" />
            </Array>
            <mxPoint as="offset" />
          </mxGeometry>
        </mxCell>
        <mxCell id="EC5lf5gmg6Qt6Xy7_AVs-82" value="לא" style="edgeStyle=orthogonalEdgeStyle;rounded=0;orthogonalLoop=1;jettySize=auto;html=1;labelBackgroundColor=none;endArrow=block;endFill=0;endSize=8;strokeWidth=1;shadow=0;" parent="WIyWlLk6GJQsqaUBKTNV-1" edge="1">
          <mxGeometry x="-0.208" y="20" relative="1" as="geometry">
            <mxPoint x="-80.5" y="990" as="sourcePoint" />
            <mxPoint x="-80.5" y="1040" as="targetPoint" />
            <mxPoint as="offset" />
          </mxGeometry>
        </mxCell>
        <mxCell id="EC5lf5gmg6Qt6Xy7_AVs-110" value="כן" style="edgeStyle=orthogonalEdgeStyle;rounded=0;orthogonalLoop=1;jettySize=auto;html=1;entryX=1;entryY=0.5;entryDx=0;entryDy=0;labelBackgroundColor=none;endArrow=block;endFill=0;endSize=8;strokeWidth=1;shadow=0;fillColor=#ffe6cc;strokeColor=#d79b00;" parent="WIyWlLk6GJQsqaUBKTNV-1" source="EC5lf5gmg6Qt6Xy7_AVs-83" target="EC5lf5gmg6Qt6Xy7_AVs-34" edge="1">
          <mxGeometry x="-0.3571" y="-10" relative="1" as="geometry">
            <Array as="points">
              <mxPoint x="-430" y="1080" />
              <mxPoint x="-430" y="990" />
            </Array>
            <mxPoint as="offset" />
          </mxGeometry>
        </mxCell>
        <mxCell id="EC5lf5gmg6Qt6Xy7_AVs-83" value="&lt;p style=&quot;border-color: var(--border-color); text-indent: -18pt; line-height: 0px;&quot; dir=&quot;RTL&quot; class=&quot;MsoListParagraph&quot;&gt;המאשר הוא נציג בכיר/ר&quot;צ/מנהל מוקד/מנהל מחלקת שירות פיננסי&lt;br style=&quot;border-color: var(--border-color);&quot;&gt;&lt;span style=&quot;border-color: var(--border-color);&quot; dir=&quot;LTR&quot;&gt;&lt;/span&gt;&lt;/p&gt;&lt;p style=&quot;border-color: var(--border-color); text-indent: -18pt; line-height: 0px;&quot; dir=&quot;RTL&quot; class=&quot;MsoListParagraph&quot;&gt;&lt;span style=&quot;border-color: var(--border-color); font-family: Arial, sans-serif;&quot; lang=&quot;HE&quot;&gt;וסכום החריגה קטן שווה למקסימום חריגה בנק דיסקונט&lt;/span&gt;&lt;/p&gt;&lt;p style=&quot;border-color: var(--border-color); text-indent: -18pt; line-height: 0px;&quot; dir=&quot;RTL&quot; class=&quot;MsoListParagraph&quot;&gt;וגם לאחוז חריגה לנציג בכיר בנק דיסקונט * מסגרת האשראי&lt;br&gt;&lt;/p&gt;" style="rhombus;whiteSpace=wrap;html=1;spacing=0;" parent="WIyWlLk6GJQsqaUBKTNV-1" vertex="1">
          <mxGeometry x="-280" y="1040" width="400" height="80" as="geometry" />
        </mxCell>
        <mxCell id="EC5lf5gmg6Qt6Xy7_AVs-99" value="המאשר הוא המשתמש המחובר למערכת" style="ellipse;shape=cloud;whiteSpace=wrap;html=1;" parent="WIyWlLk6GJQsqaUBKTNV-1" vertex="1">
          <mxGeometry y="340" width="140" height="80" as="geometry" />
        </mxCell>
        <mxCell id="EC5lf5gmg6Qt6Xy7_AVs-101" value="" style="endArrow=none;html=1;rounded=0;exitX=0.875;exitY=0.5;exitDx=0;exitDy=0;exitPerimeter=0;" parent="WIyWlLk6GJQsqaUBKTNV-1" source="EC5lf5gmg6Qt6Xy7_AVs-99" edge="1">
          <mxGeometry width="50" height="50" relative="1" as="geometry">
            <mxPoint x="140" y="430" as="sourcePoint" />
            <mxPoint x="220" y="380" as="targetPoint" />
          </mxGeometry>
        </mxCell>
        <mxCell id="EC5lf5gmg6Qt6Xy7_AVs-111" value="כן" style="edgeStyle=orthogonalEdgeStyle;rounded=0;orthogonalLoop=1;jettySize=auto;html=1;labelBackgroundColor=none;endArrow=block;endFill=0;endSize=8;strokeWidth=1;shadow=0;" parent="WIyWlLk6GJQsqaUBKTNV-1" source="EC5lf5gmg6Qt6Xy7_AVs-112" target="EC5lf5gmg6Qt6Xy7_AVs-113" edge="1">
          <mxGeometry y="-20" relative="1" as="geometry">
            <mxPoint x="120" y="1340" as="targetPoint" />
            <mxPoint as="offset" />
          </mxGeometry>
        </mxCell>
        <mxCell id="EC5lf5gmg6Qt6Xy7_AVs-112" value="שאר הבנקים" style="rhombus;whiteSpace=wrap;html=1;shadow=0;strokeWidth=1;spacing=6;spacingTop=-4;" parent="WIyWlLk6GJQsqaUBKTNV-1" vertex="1">
          <mxGeometry x="180" y="1240" width="80" height="80" as="geometry" />
        </mxCell>
        <mxCell id="EC5lf5gmg6Qt6Xy7_AVs-114" value="כן" style="edgeStyle=orthogonalEdgeStyle;rounded=0;orthogonalLoop=1;jettySize=auto;html=1;labelBackgroundColor=none;endArrow=block;endFill=0;endSize=8;strokeWidth=1;shadow=0;fillColor=#d80073;strokeColor=#A50040;" parent="WIyWlLk6GJQsqaUBKTNV-1" source="EC5lf5gmg6Qt6Xy7_AVs-113" target="EC5lf5gmg6Qt6Xy7_AVs-29" edge="1">
          <mxGeometry x="-0.7707" y="-10" relative="1" as="geometry">
            <Array as="points">
              <mxPoint x="-740" y="1280" />
              <mxPoint x="-740" y="755" />
            </Array>
            <mxPoint as="offset" />
          </mxGeometry>
        </mxCell>
        <mxCell id="EC5lf5gmg6Qt6Xy7_AVs-124" value="לא" style="edgeStyle=orthogonalEdgeStyle;rounded=0;orthogonalLoop=1;jettySize=auto;html=1;" parent="WIyWlLk6GJQsqaUBKTNV-1" source="EC5lf5gmg6Qt6Xy7_AVs-113" target="EC5lf5gmg6Qt6Xy7_AVs-122" edge="1">
          <mxGeometry relative="1" as="geometry" />
        </mxCell>
        <mxCell id="EC5lf5gmg6Qt6Xy7_AVs-113" value="&lt;p style=&quot;text-indent:-18.0pt;mso-list:l0 level1 lfo1&quot; dir=&quot;RTL&quot; class=&quot;MsoListParagraph&quot;&gt;&lt;span style=&quot;font-family:&amp;quot;Arial&amp;quot;,sans-serif;mso-ascii-font-family:Calibri;mso-ascii-theme-font:&lt;br/&gt;minor-latin;mso-hansi-font-family:Calibri;mso-hansi-theme-font:minor-latin;&lt;br/&gt;mso-bidi-font-family:Arial;mso-bidi-theme-font:minor-bidi&quot; lang=&quot;HE&quot;&gt;סכום החריגה קטן שווה למקסימום לנציג&lt;br&gt;&lt;/span&gt;&lt;span dir=&quot;LTR&quot;&gt;&lt;/span&gt;&lt;/p&gt;" style="rhombus;whiteSpace=wrap;html=1;" parent="WIyWlLk6GJQsqaUBKTNV-1" vertex="1">
          <mxGeometry x="-280" y="1240" width="400" height="80" as="geometry" />
        </mxCell>
        <mxCell id="EC5lf5gmg6Qt6Xy7_AVs-46" value="המאשר הוא נציג בכיר/ר&quot;צ&lt;br&gt;וסכום החריגה גדול מ&lt;br&gt;מקסימום אישור ללא שליחת&lt;br&gt;מייל למנהל מוקד" style="rhombus;whiteSpace=wrap;html=1;shadow=0;strokeWidth=1;spacing=6;spacingTop=-4;" parent="WIyWlLk6GJQsqaUBKTNV-1" vertex="1">
          <mxGeometry x="-725" y="1050" width="230" height="100" as="geometry" />
        </mxCell>
        <mxCell id="EC5lf5gmg6Qt6Xy7_AVs-120" style="edgeStyle=orthogonalEdgeStyle;rounded=0;orthogonalLoop=1;jettySize=auto;html=1;entryX=0.558;entryY=0.017;entryDx=0;entryDy=0;entryPerimeter=0;" parent="WIyWlLk6GJQsqaUBKTNV-1" source="EC5lf5gmg6Qt6Xy7_AVs-41" target="EC5lf5gmg6Qt6Xy7_AVs-45" edge="1">
          <mxGeometry relative="1" as="geometry" />
        </mxCell>
        <mxCell id="EC5lf5gmg6Qt6Xy7_AVs-125" value="כן" style="edgeStyle=orthogonalEdgeStyle;rounded=0;orthogonalLoop=1;jettySize=auto;html=1;labelBackgroundColor=none;endArrow=block;strokeColor=#d79b00;endFill=0;endSize=8;strokeWidth=1;shadow=0;fillColor=#ffe6cc;" parent="WIyWlLk6GJQsqaUBKTNV-1" target="EC5lf5gmg6Qt6Xy7_AVs-34" edge="1">
          <mxGeometry x="-0.6596" y="-10" relative="1" as="geometry">
            <mxPoint x="-80" y="1380" as="sourcePoint" />
            <mxPoint x="-555" y="930" as="targetPoint" />
            <Array as="points">
              <mxPoint x="-80" y="1400" />
              <mxPoint x="-430" y="1400" />
              <mxPoint x="-430" y="990" />
            </Array>
            <mxPoint as="offset" />
          </mxGeometry>
        </mxCell>
        <mxCell id="EC5lf5gmg6Qt6Xy7_AVs-127" value="לא" style="edgeStyle=orthogonalEdgeStyle;rounded=0;orthogonalLoop=1;jettySize=auto;html=1;" parent="WIyWlLk6GJQsqaUBKTNV-1" source="EC5lf5gmg6Qt6Xy7_AVs-122" target="EC5lf5gmg6Qt6Xy7_AVs-126" edge="1">
          <mxGeometry relative="1" as="geometry" />
        </mxCell>
        <mxCell id="EC5lf5gmg6Qt6Xy7_AVs-122" value="&lt;p style=&quot;text-indent: -18pt; line-height: 0%;&quot; dir=&quot;RTL&quot; class=&quot;MsoListParagraph&quot;&gt;&lt;span style=&quot;font-family:&amp;quot;Arial&amp;quot;,sans-serif;mso-ascii-font-family:Calibri;mso-ascii-theme-font:&lt;br/&gt;minor-latin;mso-hansi-font-family:Calibri;mso-hansi-theme-font:minor-latin;&lt;br/&gt;mso-bidi-font-family:Arial;mso-bidi-theme-font:minor-bidi&quot; lang=&quot;HE&quot;&gt;סכום החריגה גדול ממקסימום לנציג&lt;br&gt;&lt;/span&gt;&lt;span dir=&quot;LTR&quot;&gt;&lt;/span&gt;&lt;/p&gt;&lt;p style=&quot;text-indent: -18pt; line-height: 0%;&quot; dir=&quot;RTL&quot; class=&quot;MsoListParagraph&quot;&gt;&lt;span style=&quot;font-family:&amp;quot;Arial&amp;quot;,sans-serif;mso-ascii-font-family:Calibri;mso-ascii-theme-font:&lt;br/&gt;minor-latin;mso-hansi-font-family:Calibri;mso-hansi-theme-font:minor-latin;&lt;br/&gt;mso-bidi-font-family:Arial;mso-bidi-theme-font:minor-bidi&quot; lang=&quot;HE&quot;&gt;וקטן שווה למקסימום נציג בכיר&lt;/span&gt;&lt;/p&gt;&lt;p style=&quot;text-indent: -18pt; line-height: 0%;&quot; dir=&quot;RTL&quot; class=&quot;MsoListParagraph&quot;&gt;&lt;span style=&quot;font-family:&amp;quot;Arial&amp;quot;,sans-serif;mso-ascii-font-family:Calibri;mso-ascii-theme-font:&lt;br/&gt;minor-latin;mso-hansi-font-family:Calibri;mso-hansi-theme-font:minor-latin;&lt;br/&gt;mso-bidi-font-family:Arial;mso-bidi-theme-font:minor-bidi&quot; lang=&quot;HE&quot;&gt;והמאשר הוא נציג בכיר/ר&quot;צ&lt;/span&gt;&lt;/p&gt;&lt;p style=&quot;text-indent: -18pt; line-height: 0%;&quot; dir=&quot;RTL&quot; class=&quot;MsoListParagraph&quot;&gt;&lt;span style=&quot;font-family:&amp;quot;Arial&amp;quot;,sans-serif;mso-ascii-font-family:Calibri;mso-ascii-theme-font:&lt;br/&gt;minor-latin;mso-hansi-font-family:Calibri;mso-hansi-theme-font:minor-latin;&lt;br/&gt;mso-bidi-font-family:Arial;mso-bidi-theme-font:minor-bidi&quot; lang=&quot;HE&quot;&gt;או ש TAFKID_CODE=716 (מנהל מוקד)&lt;/span&gt;&lt;/p&gt;&lt;p style=&quot;text-indent: -18pt; line-height: 0%;&quot; dir=&quot;RTL&quot; class=&quot;MsoListParagraph&quot;&gt;&lt;/p&gt;" style="rhombus;whiteSpace=wrap;html=1;" parent="WIyWlLk6GJQsqaUBKTNV-1" vertex="1">
          <mxGeometry x="-280" y="1360" width="400" height="80" as="geometry" />
        </mxCell>
        <mxCell id="EC5lf5gmg6Qt6Xy7_AVs-128" style="edgeStyle=orthogonalEdgeStyle;rounded=0;orthogonalLoop=1;jettySize=auto;html=1;" parent="WIyWlLk6GJQsqaUBKTNV-1" source="EC5lf5gmg6Qt6Xy7_AVs-126" target="EC5lf5gmg6Qt6Xy7_AVs-38" edge="1">
          <mxGeometry relative="1" as="geometry">
            <Array as="points">
              <mxPoint x="-310" y="1510" />
              <mxPoint x="-310" y="1170" />
            </Array>
          </mxGeometry>
        </mxCell>
        <mxCell id="EC5lf5gmg6Qt6Xy7_AVs-131" value="לא" style="edgeStyle=orthogonalEdgeStyle;rounded=0;orthogonalLoop=1;jettySize=auto;html=1;" parent="WIyWlLk6GJQsqaUBKTNV-1" source="EC5lf5gmg6Qt6Xy7_AVs-126" target="EC5lf5gmg6Qt6Xy7_AVs-129" edge="1">
          <mxGeometry relative="1" as="geometry" />
        </mxCell>
        <mxCell id="EC5lf5gmg6Qt6Xy7_AVs-126" value="&lt;p style=&quot;text-indent: -18pt; line-height: 0%;&quot; dir=&quot;RTL&quot; class=&quot;MsoListParagraph&quot;&gt;&lt;font face=&quot;Arial, sans-serif&quot;&gt;סכום החריגה גדול ממקסימום לנציג בכיר&lt;/font&gt;&lt;/p&gt;&lt;p style=&quot;text-indent: -18pt; line-height: 0%;&quot; dir=&quot;RTL&quot; class=&quot;MsoListParagraph&quot;&gt;&lt;font face=&quot;Arial, sans-serif&quot;&gt;וקטן שווה למקסימום מנהל מוקד&lt;/font&gt;&lt;/p&gt;&lt;p style=&quot;text-indent: -18pt; line-height: 0%;&quot; dir=&quot;RTL&quot; class=&quot;MsoListParagraph&quot;&gt;&lt;font face=&quot;Arial, sans-serif&quot;&gt;והמאשר הוא מנהל מוקד&lt;/font&gt;&lt;/p&gt;&lt;p style=&quot;text-indent: -18pt; line-height: 0%;&quot; dir=&quot;RTL&quot; class=&quot;MsoListParagraph&quot;&gt;&lt;/p&gt;" style="rhombus;whiteSpace=wrap;html=1;" parent="WIyWlLk6GJQsqaUBKTNV-1" vertex="1">
          <mxGeometry x="-280" y="1470" width="400" height="80" as="geometry" />
        </mxCell>
        <mxCell id="EC5lf5gmg6Qt6Xy7_AVs-133" value="כן" style="edgeStyle=orthogonalEdgeStyle;rounded=0;orthogonalLoop=1;jettySize=auto;html=1;entryX=1;entryY=0.5;entryDx=0;entryDy=0;" parent="WIyWlLk6GJQsqaUBKTNV-1" source="EC5lf5gmg6Qt6Xy7_AVs-129" target="EC5lf5gmg6Qt6Xy7_AVs-38" edge="1">
          <mxGeometry x="0.124" relative="1" as="geometry">
            <Array as="points">
              <mxPoint x="-310" y="1620" />
              <mxPoint x="-310" y="1170" />
            </Array>
            <mxPoint as="offset" />
          </mxGeometry>
        </mxCell>
        <mxCell id="EC5lf5gmg6Qt6Xy7_AVs-129" value="&lt;p style=&quot;text-indent: -18pt; line-height: 0%;&quot; dir=&quot;RTL&quot; class=&quot;MsoListParagraph&quot;&gt;&lt;font face=&quot;Arial, sans-serif&quot;&gt;סכום החריגה קטן שווה למקסימום מנהל מחלקת שירות פיננסי&lt;/font&gt;&lt;/p&gt;&lt;p style=&quot;text-indent: -18pt; line-height: 0%;&quot; dir=&quot;RTL&quot; class=&quot;MsoListParagraph&quot;&gt;&lt;font face=&quot;Arial, sans-serif&quot;&gt;והמאשר מנהל מחלקת שירות פיננסי&lt;/font&gt;&lt;/p&gt;&lt;p style=&quot;text-indent: -18pt; line-height: 0%;&quot; dir=&quot;RTL&quot; class=&quot;MsoListParagraph&quot;&gt;&lt;/p&gt;" style="rhombus;whiteSpace=wrap;html=1;" parent="WIyWlLk6GJQsqaUBKTNV-1" vertex="1">
          <mxGeometry x="-280" y="1580" width="400" height="80" as="geometry" />
        </mxCell>
        <mxCell id="EC5lf5gmg6Qt6Xy7_AVs-140" value="כן" style="edgeStyle=orthogonalEdgeStyle;rounded=0;orthogonalLoop=1;jettySize=auto;html=1;" parent="WIyWlLk6GJQsqaUBKTNV-1" source="EC5lf5gmg6Qt6Xy7_AVs-135" target="EC5lf5gmg6Qt6Xy7_AVs-136" edge="1">
          <mxGeometry relative="1" as="geometry" />
        </mxCell>
        <mxCell id="-IVf00ebbiKwBFE9Y3km-28" value="לא" style="edgeStyle=orthogonalEdgeStyle;rounded=0;orthogonalLoop=1;jettySize=auto;html=1;" edge="1" parent="WIyWlLk6GJQsqaUBKTNV-1" source="EC5lf5gmg6Qt6Xy7_AVs-135" target="-IVf00ebbiKwBFE9Y3km-27">
          <mxGeometry relative="1" as="geometry" />
        </mxCell>
        <mxCell id="EC5lf5gmg6Qt6Xy7_AVs-135" value="?כרטיס רכש" style="rhombus;whiteSpace=wrap;html=1;shadow=0;fontFamily=Helvetica;fontSize=12;align=center;strokeWidth=1;spacing=6;spacingTop=-4;" parent="WIyWlLk6GJQsqaUBKTNV-1" vertex="1">
          <mxGeometry x="570" y="290" width="100" height="80" as="geometry" />
        </mxCell>
        <mxCell id="EC5lf5gmg6Qt6Xy7_AVs-145" value="לא" style="edgeStyle=orthogonalEdgeStyle;rounded=0;orthogonalLoop=1;jettySize=auto;html=1;" parent="WIyWlLk6GJQsqaUBKTNV-1" source="EC5lf5gmg6Qt6Xy7_AVs-136" target="EC5lf5gmg6Qt6Xy7_AVs-143" edge="1">
          <mxGeometry relative="1" as="geometry" />
        </mxCell>
        <mxCell id="-IVf00ebbiKwBFE9Y3km-52" value="כן" style="edgeStyle=orthogonalEdgeStyle;rounded=0;orthogonalLoop=1;jettySize=auto;html=1;" edge="1" parent="WIyWlLk6GJQsqaUBKTNV-1" source="EC5lf5gmg6Qt6Xy7_AVs-136" target="-IVf00ebbiKwBFE9Y3km-51">
          <mxGeometry relative="1" as="geometry" />
        </mxCell>
        <mxCell id="EC5lf5gmg6Qt6Xy7_AVs-136" value="המאשר הוא נציג&lt;br&gt;(והסכום לאישור קטן שווה לסמכות נציג מהמסך (מחושב&lt;br&gt;וגם סכום החריגה קטן שווה למקסימום אשראי קרדיט&lt;br&gt;וגם לאחוז חריגה אשראי קרדיט*מסגרת האשראי" style="rhombus;whiteSpace=wrap;html=1;shadow=0;fontFamily=Helvetica;fontSize=12;align=center;strokeWidth=1;spacing=6;spacingTop=-4;" parent="WIyWlLk6GJQsqaUBKTNV-1" vertex="1">
          <mxGeometry x="410" y="460" width="420" height="80" as="geometry" />
        </mxCell>
        <mxCell id="-IVf00ebbiKwBFE9Y3km-53" value="כן" style="edgeStyle=orthogonalEdgeStyle;rounded=0;orthogonalLoop=1;jettySize=auto;html=1;entryX=0;entryY=0.5;entryDx=0;entryDy=0;" edge="1" parent="WIyWlLk6GJQsqaUBKTNV-1" source="EC5lf5gmg6Qt6Xy7_AVs-143" target="-IVf00ebbiKwBFE9Y3km-51">
          <mxGeometry relative="1" as="geometry" />
        </mxCell>
        <mxCell id="EC5lf5gmg6Qt6Xy7_AVs-143" value="המאשר הוא נציג בכיר/ר&quot;צ&lt;br&gt;(והסכום לאישור קטן שווה לסמכות נציג בכיר מהמסך (מחושב&lt;br&gt;וגם סכום החריגה קטן שווה למקסימום אשראי קרדיט&lt;br&gt;וגם לאחוז חריגה אשראי קרדיט*מסגרת האשראי" style="rhombus;whiteSpace=wrap;html=1;shadow=0;fontFamily=Helvetica;fontSize=12;align=center;strokeWidth=1;spacing=6;spacingTop=-4;" parent="WIyWlLk6GJQsqaUBKTNV-1" vertex="1">
          <mxGeometry x="410" y="570" width="420" height="80" as="geometry" />
        </mxCell>
        <mxCell id="EC5lf5gmg6Qt6Xy7_AVs-152" value="כן" style="edgeStyle=orthogonalEdgeStyle;rounded=0;orthogonalLoop=1;jettySize=auto;html=1;" parent="WIyWlLk6GJQsqaUBKTNV-1" source="EC5lf5gmg6Qt6Xy7_AVs-146" target="EC5lf5gmg6Qt6Xy7_AVs-149" edge="1">
          <mxGeometry relative="1" as="geometry" />
        </mxCell>
        <mxCell id="-IVf00ebbiKwBFE9Y3km-55" value="לא" style="edgeStyle=orthogonalEdgeStyle;rounded=0;orthogonalLoop=1;jettySize=auto;html=1;" edge="1" parent="WIyWlLk6GJQsqaUBKTNV-1" source="EC5lf5gmg6Qt6Xy7_AVs-146" target="EC5lf5gmg6Qt6Xy7_AVs-162">
          <mxGeometry relative="1" as="geometry" />
        </mxCell>
        <mxCell id="EC5lf5gmg6Qt6Xy7_AVs-146" value="המאשר שונה מהמעדכן&lt;br&gt;והתפקידים שלהם זהים" style="rhombus;whiteSpace=wrap;html=1;shadow=0;strokeWidth=1;spacing=6;spacingTop=-4;" parent="WIyWlLk6GJQsqaUBKTNV-1" vertex="1">
          <mxGeometry x="970" y="680" width="210" height="80" as="geometry" />
        </mxCell>
        <mxCell id="EC5lf5gmg6Qt6Xy7_AVs-156" value="כן" style="edgeStyle=orthogonalEdgeStyle;rounded=0;orthogonalLoop=1;jettySize=auto;html=1;" parent="WIyWlLk6GJQsqaUBKTNV-1" source="EC5lf5gmg6Qt6Xy7_AVs-149" target="EC5lf5gmg6Qt6Xy7_AVs-155" edge="1">
          <mxGeometry relative="1" as="geometry" />
        </mxCell>
        <mxCell id="EC5lf5gmg6Qt6Xy7_AVs-161" value="לא" style="edgeStyle=orthogonalEdgeStyle;rounded=0;orthogonalLoop=1;jettySize=auto;html=1;" parent="WIyWlLk6GJQsqaUBKTNV-1" source="EC5lf5gmg6Qt6Xy7_AVs-149" target="EC5lf5gmg6Qt6Xy7_AVs-154" edge="1">
          <mxGeometry relative="1" as="geometry" />
        </mxCell>
        <mxCell id="-IVf00ebbiKwBFE9Y3km-68" value="כן" style="edgeStyle=orthogonalEdgeStyle;rounded=0;orthogonalLoop=1;jettySize=auto;html=1;" edge="1" parent="WIyWlLk6GJQsqaUBKTNV-1" source="EC5lf5gmg6Qt6Xy7_AVs-149" target="-IVf00ebbiKwBFE9Y3km-64">
          <mxGeometry relative="1" as="geometry">
            <Array as="points">
              <mxPoint x="685" y="740" />
            </Array>
          </mxGeometry>
        </mxCell>
        <mxCell id="EC5lf5gmg6Qt6Xy7_AVs-149" value="שני הגורמים נציגים" style="rhombus;whiteSpace=wrap;html=1;shadow=0;strokeWidth=1;spacing=6;spacingTop=-4;" parent="WIyWlLk6GJQsqaUBKTNV-1" vertex="1">
          <mxGeometry x="710" y="680" width="210" height="80" as="geometry" />
        </mxCell>
        <mxCell id="EC5lf5gmg6Qt6Xy7_AVs-160" value="כן" style="edgeStyle=orthogonalEdgeStyle;rounded=0;orthogonalLoop=1;jettySize=auto;html=1;" parent="WIyWlLk6GJQsqaUBKTNV-1" source="EC5lf5gmg6Qt6Xy7_AVs-154" target="EC5lf5gmg6Qt6Xy7_AVs-157" edge="1">
          <mxGeometry relative="1" as="geometry" />
        </mxCell>
        <mxCell id="-IVf00ebbiKwBFE9Y3km-71" value="כן" style="edgeStyle=orthogonalEdgeStyle;rounded=0;orthogonalLoop=1;jettySize=auto;html=1;entryX=0.5;entryY=0;entryDx=0;entryDy=0;" edge="1" parent="WIyWlLk6GJQsqaUBKTNV-1" source="EC5lf5gmg6Qt6Xy7_AVs-154" target="-IVf00ebbiKwBFE9Y3km-69">
          <mxGeometry relative="1" as="geometry">
            <Array as="points">
              <mxPoint x="685" y="910" />
            </Array>
          </mxGeometry>
        </mxCell>
        <mxCell id="EC5lf5gmg6Qt6Xy7_AVs-154" value="שני הגורמים נציגים בכירים/ר&quot;צ" style="rhombus;whiteSpace=wrap;html=1;shadow=0;strokeWidth=1;spacing=6;spacingTop=-4;" parent="WIyWlLk6GJQsqaUBKTNV-1" vertex="1">
          <mxGeometry x="710" y="850" width="210" height="80" as="geometry" />
        </mxCell>
        <mxCell id="EC5lf5gmg6Qt6Xy7_AVs-155" value="שליחת מייל&lt;br&gt;&quot;מתן אישור חריג&quot;&lt;br&gt;&amp;nbsp;לר&quot;צ המשותף" style="shape=parallelogram;perimeter=parallelogramPerimeter;whiteSpace=wrap;html=1;fixedSize=1;" parent="WIyWlLk6GJQsqaUBKTNV-1" vertex="1">
          <mxGeometry x="430" y="690" width="120" height="60" as="geometry" />
        </mxCell>
        <mxCell id="EC5lf5gmg6Qt6Xy7_AVs-157" value="שליחת מייל&lt;br style=&quot;border-color: var(--border-color);&quot;&gt;&quot;מתן אישור חריג&quot;&lt;br style=&quot;border-color: var(--border-color);&quot;&gt;למנהל מוקד המשותף" style="shape=parallelogram;perimeter=parallelogramPerimeter;whiteSpace=wrap;html=1;fixedSize=1;" parent="WIyWlLk6GJQsqaUBKTNV-1" vertex="1">
          <mxGeometry x="430" y="860" width="120" height="60" as="geometry" />
        </mxCell>
        <mxCell id="EC5lf5gmg6Qt6Xy7_AVs-166" value="כן" style="edgeStyle=orthogonalEdgeStyle;rounded=0;orthogonalLoop=1;jettySize=auto;html=1;" parent="WIyWlLk6GJQsqaUBKTNV-1" source="EC5lf5gmg6Qt6Xy7_AVs-162" target="EC5lf5gmg6Qt6Xy7_AVs-165" edge="1">
          <mxGeometry relative="1" as="geometry" />
        </mxCell>
        <mxCell id="EC5lf5gmg6Qt6Xy7_AVs-162" value="המאשר שונה מהמעדכן&lt;br&gt;והתפקידים שלהם שונים" style="rhombus;whiteSpace=wrap;html=1;" parent="WIyWlLk6GJQsqaUBKTNV-1" vertex="1">
          <mxGeometry x="975" y="1000" width="200" height="80" as="geometry" />
        </mxCell>
        <mxCell id="EC5lf5gmg6Qt6Xy7_AVs-137" value="&lt;b&gt;המעדכן&lt;/b&gt; הוא המשתמש המחובר למערכת&lt;br&gt;&lt;b&gt;המאשר&lt;/b&gt; הוא המשתמש&lt;br&gt;שמספרו הוזן בשדה במסך&lt;br&gt;לפעמים הם זהים ולפעמים שונים" style="ellipse;shape=cloud;whiteSpace=wrap;html=1;" parent="WIyWlLk6GJQsqaUBKTNV-1" vertex="1">
          <mxGeometry x="320" y="200" width="230" height="100" as="geometry" />
        </mxCell>
        <mxCell id="EC5lf5gmg6Qt6Xy7_AVs-165" value="שליחת מייל&lt;br&gt;&quot;מתן אישור חריג&quot;&lt;br&gt;למאשר" style="shape=parallelogram;perimeter=parallelogramPerimeter;whiteSpace=wrap;html=1;fixedSize=1;" parent="WIyWlLk6GJQsqaUBKTNV-1" vertex="1">
          <mxGeometry x="430" y="1010" width="120" height="60" as="geometry" />
        </mxCell>
        <mxCell id="-IVf00ebbiKwBFE9Y3km-78" value="כן" style="edgeStyle=orthogonalEdgeStyle;rounded=0;orthogonalLoop=1;jettySize=auto;html=1;" edge="1" parent="WIyWlLk6GJQsqaUBKTNV-1" source="-IVf00ebbiKwBFE9Y3km-26" target="-IVf00ebbiKwBFE9Y3km-51">
          <mxGeometry relative="1" as="geometry" />
        </mxCell>
        <mxCell id="-IVf00ebbiKwBFE9Y3km-26" value="סכום החריגה קטן שווה למקסימום חריגה בנק מזרחי&lt;br&gt;וגם לאחוז חריגה בנק מזרחי*מסגרת האשראי" style="rhombus;whiteSpace=wrap;html=1;shadow=0;fontFamily=Helvetica;fontSize=12;align=center;strokeWidth=1;spacing=6;spacingTop=-4;" vertex="1" parent="WIyWlLk6GJQsqaUBKTNV-1">
          <mxGeometry x="1330" y="520" width="400" height="80" as="geometry" />
        </mxCell>
        <mxCell id="-IVf00ebbiKwBFE9Y3km-31" style="edgeStyle=orthogonalEdgeStyle;rounded=0;orthogonalLoop=1;jettySize=auto;html=1;" edge="1" parent="WIyWlLk6GJQsqaUBKTNV-1" source="-IVf00ebbiKwBFE9Y3km-27" target="-IVf00ebbiKwBFE9Y3km-29">
          <mxGeometry relative="1" as="geometry" />
        </mxCell>
        <mxCell id="-IVf00ebbiKwBFE9Y3km-27" value="מנפיק הכרטיס" style="whiteSpace=wrap;html=1;shadow=0;strokeWidth=1;spacing=6;spacingTop=-4;" vertex="1" parent="WIyWlLk6GJQsqaUBKTNV-1">
          <mxGeometry x="1820" y="300" width="120" height="60" as="geometry" />
        </mxCell>
        <mxCell id="-IVf00ebbiKwBFE9Y3km-32" value="כן" style="edgeStyle=orthogonalEdgeStyle;rounded=0;orthogonalLoop=1;jettySize=auto;html=1;" edge="1" parent="WIyWlLk6GJQsqaUBKTNV-1" source="-IVf00ebbiKwBFE9Y3km-29" target="-IVf00ebbiKwBFE9Y3km-26">
          <mxGeometry relative="1" as="geometry" />
        </mxCell>
        <mxCell id="-IVf00ebbiKwBFE9Y3km-39" value="לא" style="edgeStyle=orthogonalEdgeStyle;rounded=0;orthogonalLoop=1;jettySize=auto;html=1;" edge="1" parent="WIyWlLk6GJQsqaUBKTNV-1" source="-IVf00ebbiKwBFE9Y3km-29" target="-IVf00ebbiKwBFE9Y3km-37">
          <mxGeometry relative="1" as="geometry" />
        </mxCell>
        <mxCell id="-IVf00ebbiKwBFE9Y3km-29" value="בנק מזרחי" style="rhombus;whiteSpace=wrap;html=1;shadow=0;strokeWidth=1;spacing=6;spacingTop=-4;direction=south;" vertex="1" parent="WIyWlLk6GJQsqaUBKTNV-1">
          <mxGeometry x="1840" y="520" width="80" height="80" as="geometry" />
        </mxCell>
        <mxCell id="-IVf00ebbiKwBFE9Y3km-44" value="כן" style="edgeStyle=orthogonalEdgeStyle;rounded=0;orthogonalLoop=1;jettySize=auto;html=1;" edge="1" parent="WIyWlLk6GJQsqaUBKTNV-1" source="-IVf00ebbiKwBFE9Y3km-37" target="-IVf00ebbiKwBFE9Y3km-41">
          <mxGeometry relative="1" as="geometry" />
        </mxCell>
        <mxCell id="-IVf00ebbiKwBFE9Y3km-74" value="לא" style="edgeStyle=orthogonalEdgeStyle;rounded=0;orthogonalLoop=1;jettySize=auto;html=1;" edge="1" parent="WIyWlLk6GJQsqaUBKTNV-1" source="-IVf00ebbiKwBFE9Y3km-37" target="-IVf00ebbiKwBFE9Y3km-48">
          <mxGeometry relative="1" as="geometry" />
        </mxCell>
        <mxCell id="-IVf00ebbiKwBFE9Y3km-37" value="בנק דיסקונט" style="rhombus;whiteSpace=wrap;html=1;shadow=0;strokeWidth=1;spacing=6;spacingTop=-4;direction=south;" vertex="1" parent="WIyWlLk6GJQsqaUBKTNV-1">
          <mxGeometry x="1840" y="650" width="80" height="80" as="geometry" />
        </mxCell>
        <mxCell id="-IVf00ebbiKwBFE9Y3km-76" value="כן" style="edgeStyle=orthogonalEdgeStyle;rounded=0;orthogonalLoop=1;jettySize=auto;html=1;" edge="1" parent="WIyWlLk6GJQsqaUBKTNV-1" source="-IVf00ebbiKwBFE9Y3km-41" target="-IVf00ebbiKwBFE9Y3km-51">
          <mxGeometry relative="1" as="geometry">
            <Array as="points">
              <mxPoint x="1240" y="690" />
              <mxPoint x="1240" y="560" />
            </Array>
          </mxGeometry>
        </mxCell>
        <mxCell id="-IVf00ebbiKwBFE9Y3km-79" value="לא" style="edgeStyle=orthogonalEdgeStyle;rounded=0;orthogonalLoop=1;jettySize=auto;html=1;" edge="1" parent="WIyWlLk6GJQsqaUBKTNV-1" source="-IVf00ebbiKwBFE9Y3km-41" target="-IVf00ebbiKwBFE9Y3km-42">
          <mxGeometry relative="1" as="geometry" />
        </mxCell>
        <mxCell id="-IVf00ebbiKwBFE9Y3km-41" value="&lt;p style=&quot;text-indent: -18pt; line-height: 0%;&quot; dir=&quot;RTL&quot; class=&quot;MsoListParagraph&quot;&gt;&lt;span style=&quot;font-family:&amp;quot;Arial&amp;quot;,sans-serif;mso-ascii-font-family:Calibri;mso-ascii-theme-font:&lt;br/&gt;minor-latin;mso-hansi-font-family:Calibri;mso-hansi-theme-font:minor-latin;&lt;br/&gt;mso-bidi-font-family:Arial;mso-bidi-theme-font:minor-bidi&quot; lang=&quot;HE&quot;&gt;המאשר הוא נציג&lt;br&gt;&lt;/span&gt;&lt;span dir=&quot;LTR&quot;&gt;&lt;/span&gt;&lt;/p&gt;&lt;p style=&quot;text-indent: -18pt; line-height: 0%;&quot; dir=&quot;RTL&quot; class=&quot;MsoListParagraph&quot;&gt;&lt;span style=&quot;font-family:&amp;quot;Arial&amp;quot;,sans-serif;mso-ascii-font-family:Calibri;mso-ascii-theme-font:&lt;br/&gt;minor-latin;mso-hansi-font-family:Calibri;mso-hansi-theme-font:minor-latin;&lt;br/&gt;mso-bidi-font-family:Arial;mso-bidi-theme-font:minor-bidi&quot; lang=&quot;HE&quot;&gt;וסכום החריגה קטן שווה למקסימום חריגה בנק דיסקונט&lt;/span&gt;&lt;/p&gt;&lt;p style=&quot;text-indent: -18pt; line-height: 0%;&quot; dir=&quot;RTL&quot; class=&quot;MsoListParagraph&quot;&gt;&lt;span style=&quot;font-family:&amp;quot;Arial&amp;quot;,sans-serif;mso-ascii-font-family:Calibri;mso-ascii-theme-font:&lt;br/&gt;minor-latin;mso-hansi-font-family:Calibri;mso-hansi-theme-font:minor-latin;&lt;br/&gt;mso-bidi-font-family:Arial;mso-bidi-theme-font:minor-bidi&quot; lang=&quot;HE&quot;&gt;וגם לאחוז חריגה לנציג בנק דיסקונט * מסגרת האשראי&lt;/span&gt;&lt;/p&gt;" style="rhombus;whiteSpace=wrap;html=1;" vertex="1" parent="WIyWlLk6GJQsqaUBKTNV-1">
          <mxGeometry x="1330" y="650" width="400" height="80" as="geometry" />
        </mxCell>
        <mxCell id="-IVf00ebbiKwBFE9Y3km-77" value="כן" style="edgeStyle=orthogonalEdgeStyle;rounded=0;orthogonalLoop=1;jettySize=auto;html=1;" edge="1" parent="WIyWlLk6GJQsqaUBKTNV-1" source="-IVf00ebbiKwBFE9Y3km-42" target="-IVf00ebbiKwBFE9Y3km-51">
          <mxGeometry x="-0.3478" relative="1" as="geometry">
            <Array as="points">
              <mxPoint x="1240" y="820" />
              <mxPoint x="1240" y="560" />
            </Array>
            <mxPoint as="offset" />
          </mxGeometry>
        </mxCell>
        <mxCell id="-IVf00ebbiKwBFE9Y3km-42" value="&lt;p style=&quot;border-color: var(--border-color); text-indent: -18pt; line-height: 0px;&quot; dir=&quot;RTL&quot; class=&quot;MsoListParagraph&quot;&gt;המאשר הוא נציג בכיר/ר&quot;צ/מנהל מוקד/מנהל מחלקת שירות פיננסי&lt;br style=&quot;border-color: var(--border-color);&quot;&gt;&lt;span style=&quot;border-color: var(--border-color);&quot; dir=&quot;LTR&quot;&gt;&lt;/span&gt;&lt;/p&gt;&lt;p style=&quot;border-color: var(--border-color); text-indent: -18pt; line-height: 0px;&quot; dir=&quot;RTL&quot; class=&quot;MsoListParagraph&quot;&gt;&lt;span style=&quot;border-color: var(--border-color); font-family: Arial, sans-serif;&quot; lang=&quot;HE&quot;&gt;וסכום החריגה קטן שווה למקסימום חריגה בנק דיסקונט&lt;/span&gt;&lt;/p&gt;&lt;p style=&quot;border-color: var(--border-color); text-indent: -18pt; line-height: 0px;&quot; dir=&quot;RTL&quot; class=&quot;MsoListParagraph&quot;&gt;וגם לאחוז חריגה לנציג בכיר בנק דיסקונט * מסגרת האשראי&lt;br&gt;&lt;/p&gt;" style="rhombus;whiteSpace=wrap;html=1;spacing=0;" vertex="1" parent="WIyWlLk6GJQsqaUBKTNV-1">
          <mxGeometry x="1330" y="780" width="400" height="80" as="geometry" />
        </mxCell>
        <mxCell id="-IVf00ebbiKwBFE9Y3km-48" value="שאר הבנקים" style="rhombus;whiteSpace=wrap;html=1;shadow=0;strokeWidth=1;spacing=6;spacingTop=-4;direction=south;" vertex="1" parent="WIyWlLk6GJQsqaUBKTNV-1">
          <mxGeometry x="1840" y="880" width="80" height="80" as="geometry" />
        </mxCell>
        <mxCell id="-IVf00ebbiKwBFE9Y3km-54" value="כן" style="edgeStyle=orthogonalEdgeStyle;rounded=0;orthogonalLoop=1;jettySize=auto;html=1;" edge="1" parent="WIyWlLk6GJQsqaUBKTNV-1" source="-IVf00ebbiKwBFE9Y3km-51" target="EC5lf5gmg6Qt6Xy7_AVs-146">
          <mxGeometry relative="1" as="geometry" />
        </mxCell>
        <mxCell id="-IVf00ebbiKwBFE9Y3km-51" value="מאושר" style="rounded=1;whiteSpace=wrap;html=1;" vertex="1" parent="WIyWlLk6GJQsqaUBKTNV-1">
          <mxGeometry x="1020" y="530" width="110" height="60" as="geometry" />
        </mxCell>
        <mxCell id="-IVf00ebbiKwBFE9Y3km-60" value="" style="endArrow=none;html=1;rounded=0;" edge="1" parent="WIyWlLk6GJQsqaUBKTNV-1" target="EC5lf5gmg6Qt6Xy7_AVs-137">
          <mxGeometry width="50" height="50" relative="1" as="geometry">
            <mxPoint x="430" y="330" as="sourcePoint" />
            <mxPoint x="430" y="300" as="targetPoint" />
          </mxGeometry>
        </mxCell>
        <mxCell id="-IVf00ebbiKwBFE9Y3km-63" value="כן" style="edgeStyle=orthogonalEdgeStyle;rounded=0;orthogonalLoop=1;jettySize=auto;html=1;" edge="1" source="-IVf00ebbiKwBFE9Y3km-64" target="-IVf00ebbiKwBFE9Y3km-65" parent="WIyWlLk6GJQsqaUBKTNV-1">
          <mxGeometry relative="1" as="geometry" />
        </mxCell>
        <mxCell id="-IVf00ebbiKwBFE9Y3km-64" value="סכום החריגה גדול מ&lt;br style=&quot;border-color: var(--border-color);&quot;&gt;מקסימום אישור ללא שליחת&lt;br style=&quot;border-color: var(--border-color);&quot;&gt;מייל לר&quot;צ" style="rhombus;whiteSpace=wrap;html=1;shadow=0;strokeWidth=1;spacing=6;spacingTop=-4;" vertex="1" parent="WIyWlLk6GJQsqaUBKTNV-1">
          <mxGeometry x="580" y="760" width="210" height="80" as="geometry" />
        </mxCell>
        <mxCell id="-IVf00ebbiKwBFE9Y3km-65" value="שליחת מייל &lt;br&gt;&quot;חריגה&quot;&lt;br&gt;לר&quot;צ המשותף" style="shape=parallelogram;perimeter=parallelogramPerimeter;whiteSpace=wrap;html=1;fixedSize=1;" vertex="1" parent="WIyWlLk6GJQsqaUBKTNV-1">
          <mxGeometry x="430" y="775" width="120" height="50" as="geometry" />
        </mxCell>
        <mxCell id="-IVf00ebbiKwBFE9Y3km-73" style="edgeStyle=orthogonalEdgeStyle;rounded=0;orthogonalLoop=1;jettySize=auto;html=1;" edge="1" parent="WIyWlLk6GJQsqaUBKTNV-1" source="-IVf00ebbiKwBFE9Y3km-69" target="-IVf00ebbiKwBFE9Y3km-70">
          <mxGeometry relative="1" as="geometry" />
        </mxCell>
        <mxCell id="-IVf00ebbiKwBFE9Y3km-69" value="סכום החריגה גדול מ&lt;br style=&quot;border-color: var(--border-color);&quot;&gt;מקסימום אישור ללא שליחת&lt;br style=&quot;border-color: var(--border-color);&quot;&gt;מייל למנהל מוקד" style="rhombus;whiteSpace=wrap;html=1;shadow=0;strokeWidth=1;spacing=6;spacingTop=-4;" vertex="1" parent="WIyWlLk6GJQsqaUBKTNV-1">
          <mxGeometry x="580" y="930" width="210" height="80" as="geometry" />
        </mxCell>
        <mxCell id="-IVf00ebbiKwBFE9Y3km-70" value="שליחת מייל &lt;br&gt;&quot;חריגה&quot;&lt;br&gt;למנהל מוקד המשותף" style="shape=parallelogram;perimeter=parallelogramPerimeter;whiteSpace=wrap;html=1;fixedSize=1;" vertex="1" parent="WIyWlLk6GJQsqaUBKTNV-1">
          <mxGeometry x="430" y="945" width="120" height="50" as="geometry" />
        </mxCell>
        <mxCell id="-IVf00ebbiKwBFE9Y3km-80" value="&amp;nbsp;AuthoritySum משתנה&lt;br&gt;,מחושב לפי תפקיד המאשר&lt;br&gt;מסגרת האשראי וסוג הכרטיס&lt;br&gt;&amp;nbsp;ECL_T_REP_AUTHORITY מטבלת" style="ellipse;shape=cloud;whiteSpace=wrap;html=1;" vertex="1" parent="WIyWlLk6GJQsqaUBKTNV-1">
          <mxGeometry x="1980" y="830" width="240" height="140" as="geometry" />
        </mxCell>
      </root>
    </mxGraphModel>
  </diagram>
</mxfile>
